<svg width="21" height="20" viewBox="0 0 21 20" fill="none" xmlns="http://www.w3.org/2000/svg">
<path d="M14.1348 2.96666V1.66666C14.1348 1.325 13.8515 1.04166 13.5098 1.04166C13.1682 1.04166 12.8848 1.325 12.8848 1.66666V2.91666H7.46817V1.66666C7.46817 1.325 7.18483 1.04166 6.84317 1.04166C6.5015 1.04166 6.21817 1.325 6.21817 1.66666V2.96666C3.96817 3.175 2.8765 4.51666 2.70983 6.50833C2.69317 6.75 2.89317 6.94999 3.1265 6.94999H17.2265C17.4682 6.94999 17.6682 6.74166 17.6432 6.50833C17.4765 4.51666 16.3848 3.175 14.1348 2.96666Z" fill="#A4A4A4"/>
<path opacity="0.4" d="M16.8432 8.2C17.3015 8.2 17.6765 8.575 17.6765 9.03333V14.1667C17.6765 16.6667 16.4265 18.3333 13.5098 18.3333H6.84318C3.92651 18.3333 2.67651 16.6667 2.67651 14.1667V9.03333C2.67651 8.575 3.05151 8.2 3.50985 8.2H16.8432Z" fill="#A4A4A4"/>
<path d="M7.25985 12.5C7.04318 12.5 6.82651 12.4083 6.66818 12.2583C6.51818 12.1 6.42651 11.8833 6.42651 11.6667C6.42651 11.45 6.51818 11.2333 6.66818 11.075C6.90151 10.8417 7.26818 10.7666 7.57651 10.9C7.68485 10.9416 7.77651 11 7.85151 11.075C8.00151 11.2333 8.09318 11.45 8.09318 11.6667C8.09318 11.8833 8.00151 12.1 7.85151 12.2583C7.69318 12.4083 7.47651 12.5 7.25985 12.5Z" fill="#A4A4A4"/>
<path d="M10.1766 12.5C9.95993 12.5 9.74326 12.4083 9.58493 12.2583C9.43493 12.1 9.34326 11.8833 9.34326 11.6667C9.34326 11.45 9.43493 11.2333 9.58493 11.075C9.65993 11 9.75159 10.9416 9.85993 10.9C10.1683 10.7666 10.5349 10.8417 10.7683 11.075C10.9183 11.2333 11.0099 11.45 11.0099 11.6667C11.0099 11.8833 10.9183 12.1 10.7683 12.2583C10.7266 12.2917 10.6849 12.325 10.6433 12.3583C10.5933 12.3916 10.5433 12.4167 10.4933 12.4333C10.4433 12.4583 10.3933 12.475 10.3433 12.4833C10.2849 12.4917 10.2349 12.5 10.1766 12.5Z" fill="#A4A4A4"/>
<path d="M13.0931 12.5C12.8764 12.5 12.6598 12.4083 12.5014 12.2583C12.3514 12.1 12.2598 11.8833 12.2598 11.6667C12.2598 11.45 12.3514 11.2334 12.5014 11.075C12.5848 11 12.6681 10.9417 12.7764 10.9C12.9264 10.8333 13.0931 10.8167 13.2598 10.85C13.3098 10.8583 13.3598 10.875 13.4098 10.9C13.4598 10.9167 13.5098 10.9417 13.5598 10.975C13.6014 11.0084 13.6431 11.0417 13.6848 11.075C13.8348 11.2334 13.9264 11.45 13.9264 11.6667C13.9264 11.8833 13.8348 12.1 13.6848 12.2583C13.6431 12.2917 13.6014 12.325 13.5598 12.3583C13.5098 12.3917 13.4598 12.4167 13.4098 12.4334C13.3598 12.4584 13.3098 12.475 13.2598 12.4834C13.2014 12.4917 13.1431 12.5 13.0931 12.5Z" fill="#A4A4A4"/>
<path d="M7.25985 15.4167C7.15151 15.4167 7.04318 15.3917 6.94318 15.35C6.83485 15.3084 6.75151 15.25 6.66818 15.175C6.51818 15.0167 6.42651 14.8 6.42651 14.5833C6.42651 14.3667 6.51818 14.15 6.66818 13.9917C6.75151 13.9167 6.83485 13.8583 6.94318 13.8167C7.09318 13.75 7.25985 13.7333 7.42651 13.7667C7.47651 13.775 7.52651 13.7917 7.57651 13.8167C7.62651 13.8333 7.67651 13.8584 7.72651 13.8917C7.76818 13.925 7.80985 13.9584 7.85151 13.9917C8.00151 14.15 8.09318 14.3667 8.09318 14.5833C8.09318 14.8 8.00151 15.0167 7.85151 15.175C7.80985 15.2083 7.76818 15.25 7.72651 15.275C7.67651 15.3083 7.62651 15.3334 7.57651 15.35C7.52651 15.375 7.47651 15.3917 7.42651 15.4C7.36818 15.4084 7.31818 15.4167 7.25985 15.4167Z" fill="#A4A4A4"/>
<path d="M10.1766 15.4167C9.95993 15.4167 9.74326 15.325 9.58493 15.175C9.43493 15.0167 9.34326 14.8 9.34326 14.5833C9.34326 14.3667 9.43493 14.15 9.58493 13.9917C9.89326 13.6833 10.4599 13.6833 10.7683 13.9917C10.9183 14.15 11.0099 14.3667 11.0099 14.5833C11.0099 14.8 10.9183 15.0167 10.7683 15.175C10.6099 15.325 10.3933 15.4167 10.1766 15.4167Z" fill="#A4A4A4"/>
<path d="M13.0931 15.4167C12.8764 15.4167 12.6598 15.325 12.5014 15.175C12.3514 15.0167 12.2598 14.8 12.2598 14.5833C12.2598 14.3667 12.3514 14.15 12.5014 13.9917C12.8098 13.6833 13.3764 13.6833 13.6848 13.9917C13.8348 14.15 13.9264 14.3667 13.9264 14.5833C13.9264 14.8 13.8348 15.0167 13.6848 15.175C13.5264 15.325 13.3098 15.4167 13.0931 15.4167Z" fill="#A4A4A4"/>
</svg>
