<svg width="28" height="28" viewBox="0 0 28 28" fill="none" xmlns="http://www.w3.org/2000/svg">
<path d="M19.4284 4.35411V2.57125C19.4284 2.10268 19.0399 1.71411 18.5713 1.71411C18.1027 1.71411 17.7142 2.10268 17.7142 2.57125V4.28554H10.2856V2.57125C10.2856 2.10268 9.89702 1.71411 9.42845 1.71411C8.95988 1.71411 8.57131 2.10268 8.57131 2.57125V4.35411C5.48559 4.63982 3.98845 6.47982 3.75988 9.21125C3.73702 9.54268 4.01131 9.81696 4.33131 9.81696H23.6684C23.9999 9.81696 24.2742 9.53125 24.2399 9.21125C24.0113 6.47982 22.5142 4.63982 19.4284 4.35411Z" fill="#3B82F6"/>
<path opacity="0.4" d="M23.1427 11.5315C23.7713 11.5315 24.2855 12.0458 24.2855 12.6744V19.7144C24.2855 23.1429 22.5713 25.4286 18.5713 25.4286H9.4284C5.4284 25.4286 3.71411 23.1429 3.71411 19.7144V12.6744C3.71411 12.0458 4.2284 11.5315 4.85697 11.5315H23.1427Z" fill="#3B82F6"/>
<path d="M10 17.4283C9.70289 17.4283 9.40575 17.3025 9.18861 17.0968C8.98289 16.8797 8.85718 16.5825 8.85718 16.2854C8.85718 15.9883 8.98289 15.6911 9.18861 15.474C9.50861 15.154 10.0115 15.0511 10.4343 15.234C10.5829 15.2911 10.7086 15.3711 10.8115 15.474C11.0172 15.6911 11.1429 15.9883 11.1429 16.2854C11.1429 16.5825 11.0172 16.8797 10.8115 17.0968C10.5943 17.3025 10.2972 17.4283 10 17.4283Z" fill="#1787B0"/>
<path d="M14 17.4283C13.7029 17.4283 13.4058 17.3025 13.1886 17.0968C12.9829 16.8797 12.8572 16.5825 12.8572 16.2854C12.8572 15.9883 12.9829 15.6911 13.1886 15.474C13.2915 15.3711 13.4172 15.2911 13.5657 15.234C13.9886 15.0511 14.4915 15.154 14.8115 15.474C15.0172 15.6911 15.1429 15.9883 15.1429 16.2854C15.1429 16.5825 15.0172 16.8797 14.8115 17.0968C14.7543 17.1425 14.6972 17.1882 14.64 17.234C14.5715 17.2797 14.5029 17.314 14.4343 17.3368C14.3658 17.3711 14.2972 17.394 14.2286 17.4054C14.1486 17.4168 14.08 17.4283 14 17.4283Z" fill="#1787B0"/>
<path d="M18 17.4285C17.7029 17.4285 17.4058 17.3028 17.1886 17.0971C16.9829 16.88 16.8572 16.5828 16.8572 16.2857C16.8572 15.9885 16.9829 15.6914 17.1886 15.4743C17.3029 15.3714 17.4172 15.2914 17.5657 15.2342C17.7715 15.1428 18 15.12 18.2286 15.1657C18.2972 15.1771 18.3658 15.2 18.4343 15.2342C18.5029 15.2571 18.5715 15.2914 18.64 15.3371C18.6972 15.3829 18.7543 15.4286 18.8115 15.4743C19.0172 15.6914 19.1429 15.9885 19.1429 16.2857C19.1429 16.5828 19.0172 16.88 18.8115 17.0971C18.7543 17.1428 18.6972 17.1885 18.64 17.2342C18.5715 17.28 18.5029 17.3143 18.4343 17.3371C18.3658 17.3714 18.2972 17.3943 18.2286 17.4057C18.1486 17.4171 18.0686 17.4285 18 17.4285Z" fill="#1787B0"/>
<path d="M10 21.4285C9.85146 21.4285 9.70289 21.3943 9.56575 21.3371C9.41718 21.28 9.30289 21.2 9.18861 21.0971C8.98289 20.88 8.85718 20.5828 8.85718 20.2857C8.85718 19.9885 8.98289 19.6914 9.18861 19.4743C9.30289 19.3714 9.41718 19.2914 9.56575 19.2342C9.77146 19.1428 10 19.12 10.2286 19.1657C10.2972 19.1771 10.3658 19.2 10.4343 19.2342C10.5029 19.2571 10.5715 19.2914 10.64 19.3371C10.6972 19.3829 10.7543 19.4286 10.8115 19.4743C11.0172 19.6914 11.1429 19.9885 11.1429 20.2857C11.1429 20.5828 11.0172 20.88 10.8115 21.0971C10.7543 21.1428 10.6972 21.2 10.64 21.2342C10.5715 21.28 10.5029 21.3143 10.4343 21.3371C10.3658 21.3714 10.2972 21.3943 10.2286 21.4057C10.1486 21.4171 10.08 21.4285 10 21.4285Z" fill="#1787B0"/>
<path d="M14 21.4284C13.7029 21.4284 13.4058 21.3027 13.1886 21.097C12.9829 20.8798 12.8572 20.5827 12.8572 20.2855C12.8572 19.9884 12.9829 19.6913 13.1886 19.4741C13.6115 19.0513 14.3886 19.0513 14.8115 19.4741C15.0172 19.6913 15.1429 19.9884 15.1429 20.2855C15.1429 20.5827 15.0172 20.8798 14.8115 21.097C14.5943 21.3027 14.2972 21.4284 14 21.4284Z" fill="#1787B0"/>
<path d="M18 21.4284C17.7029 21.4284 17.4058 21.3027 17.1886 21.097C16.9829 20.8798 16.8572 20.5827 16.8572 20.2855C16.8572 19.9884 16.9829 19.6913 17.1886 19.4741C17.6115 19.0513 18.3886 19.0513 18.8115 19.4741C19.0172 19.6913 19.1429 19.9884 19.1429 20.2855C19.1429 20.5827 19.0172 20.8798 18.8115 21.097C18.5943 21.3027 18.2972 21.4284 18 21.4284Z" fill="#1787B0"/>
</svg>
