<svg width="25" height="25" viewBox="0 0 25 25" fill="none" xmlns="http://www.w3.org/2000/svg">
<path opacity="0.4" d="M16.8079 2.5H8.42792C4.78792 2.5 2.61792 4.67 2.61792 8.31V16.68C2.61792 20.33 4.78792 22.5 8.42792 22.5H16.7979C20.4379 22.5 22.6079 20.33 22.6079 16.69V8.31C22.6179 4.67 20.4479 2.5 16.8079 2.5Z" fill="#F79231"/>
<path d="M14.8778 12.5L13.3678 11.97V8.58H13.7278C14.5378 8.58 15.1978 9.29 15.1978 10.16C15.1978 10.57 15.5378 10.91 15.9478 10.91C16.3578 10.91 16.6978 10.57 16.6978 10.16C16.6978 8.46 15.3678 7.08 13.7278 7.08H13.3678V6.5C13.3678 6.09 13.0278 5.75 12.6178 5.75C12.2078 5.75 11.8678 6.09 11.8678 6.5V7.08H11.2178C9.73783 7.08 8.52783 8.33 8.52783 9.86C8.52783 11.65 9.56783 12.22 10.3578 12.5L11.8678 13.03V16.41H11.5078C10.6978 16.41 10.0378 15.7 10.0378 14.83C10.0378 14.42 9.69783 14.08 9.28783 14.08C8.87783 14.08 8.53783 14.42 8.53783 14.83C8.53783 16.53 9.86783 17.91 11.5078 17.91H11.8678V18.5C11.8678 18.91 12.2078 19.25 12.6178 19.25C13.0278 19.25 13.3678 18.91 13.3678 18.5V17.92H14.0178C15.4978 17.92 16.7078 16.67 16.7078 15.14C16.6978 13.34 15.6578 12.77 14.8778 12.5ZM10.8578 11.09C10.3478 10.91 10.0378 10.74 10.0378 9.87C10.0378 9.16 10.5678 8.59 11.2278 8.59H11.8778V11.45L10.8578 11.09ZM14.0178 16.42H13.3678V13.56L14.3778 13.91C14.8878 14.09 15.1978 14.26 15.1978 15.13C15.1978 15.84 14.6678 16.42 14.0178 16.42Z" fill="#F79231"/>
</svg>
