<svg width="21" height="20" viewBox="0 0 21 20" fill="none" xmlns="http://www.w3.org/2000/svg">
<path d="M18.5347 9.08317V3.4165C18.5347 2.1665 18.0014 1.6665 16.6764 1.6665H13.3097C11.9847 1.6665 11.4514 2.1665 11.4514 3.4165V9.08317C11.4514 10.3332 11.9847 10.8332 13.3097 10.8332H16.6764C18.0014 10.8332 18.5347 10.3332 18.5347 9.08317Z" fill="#A4A4A4"/>
<path d="M9.78475 10.9165V16.5832C9.78475 17.8332 9.25142 18.3332 7.92642 18.3332H4.55975C3.23475 18.3332 2.70142 17.8332 2.70142 16.5832V10.9165C2.70142 9.6665 3.23475 9.1665 4.55975 9.1665H7.92642C9.25142 9.1665 9.78475 9.6665 9.78475 10.9165Z" fill="#A4A4A4"/>
<path opacity="0.4" d="M18.5347 16.5833V14.25C18.5347 13 18.0014 12.5 16.6764 12.5H13.3097C11.9847 12.5 11.4514 13 11.4514 14.25V16.5833C11.4514 17.8333 11.9847 18.3333 13.3097 18.3333H16.6764C18.0014 18.3333 18.5347 17.8333 18.5347 16.5833Z" fill="#A4A4A4"/>
<path opacity="0.4" d="M9.78475 5.74984V3.4165C9.78475 2.1665 9.25142 1.6665 7.92642 1.6665H4.55975C3.23475 1.6665 2.70142 2.1665 2.70142 3.4165V5.74984C2.70142 6.99984 3.23475 7.49984 4.55975 7.49984H7.92642C9.25142 7.49984 9.78475 6.99984 9.78475 5.74984Z" fill="#A4A4A4"/>
</svg>
