<svg width="44" height="44" viewBox="0 0 44 44" fill="none" xmlns="http://www.w3.org/2000/svg">
<rect width="43.4286" height="43.4286" rx="12" fill="#F79231" fill-opacity="0.1"/>
<path d="M21.7143 13.9999H11.4286C10.96 13.9999 10.5714 13.6114 10.5714 13.1428C10.5714 12.6742 10.96 12.2856 11.4286 12.2856H21.7143C22.1828 12.2856 22.5714 12.6742 22.5714 13.1428C22.5714 13.6114 22.1828 13.9999 21.7143 13.9999Z" fill="#F79231"/>
<path opacity="0.4" d="M21.7143 19.7143H11.4286C10.96 19.7143 10.5714 19.3257 10.5714 18.8571C10.5714 18.3886 10.96 18 11.4286 18H21.7143C22.1828 18 22.5714 18.3886 22.5714 18.8571C22.5714 19.3257 22.1828 19.7143 21.7143 19.7143Z" fill="#F79231"/>
<path d="M32 25.4286H11.4286C10.96 25.4286 10.5714 25.0401 10.5714 24.5715C10.5714 24.1029 10.96 23.7144 11.4286 23.7144H32C32.4686 23.7144 32.8571 24.1029 32.8571 24.5715C32.8571 25.0401 32.4686 25.4286 32 25.4286Z" fill="#F79231"/>
<path opacity="0.4" d="M32 31.1428H11.4286C10.96 31.1428 10.5714 30.7542 10.5714 30.2856C10.5714 29.817 10.96 29.4285 11.4286 29.4285H32C32.4686 29.4285 32.8571 29.817 32.8571 30.2856C32.8571 30.7542 32.4686 31.1428 32 31.1428Z" fill="#F79231"/>
</svg>
