<svg width="28" height="28" viewBox="0 0 28 28" fill="none" xmlns="http://www.w3.org/2000/svg">
<path opacity="0.4" d="M22.3885 16.8456L21.2456 14.9484C21.0056 14.5256 20.7885 13.7256 20.7885 13.257V10.3656C20.7885 6.63985 17.7599 3.59985 14.0228 3.59985C10.2856 3.59985 7.25706 6.63985 7.25706 10.3656V13.257C7.25706 13.7256 7.03992 14.5256 6.79992 14.937L5.64563 16.8456C5.18849 17.6113 5.08563 18.457 5.37135 19.2341C5.64563 19.9999 6.29706 20.5941 7.14277 20.8799C9.35992 21.6341 11.6913 21.9999 14.0228 21.9999C16.3542 21.9999 18.6856 21.6341 20.9028 20.8913C21.7028 20.6284 22.3199 20.0227 22.6171 19.2341C22.9142 18.4456 22.8342 17.577 22.3885 16.8456Z" fill="#3B82F6"/>
<path d="M16.5714 4.07986C15.7829 3.77129 14.9257 3.59986 14.0229 3.59986C13.1314 3.59986 12.2743 3.75986 11.4857 4.07986C11.9771 3.15415 12.9486 2.57129 14.0229 2.57129C15.1086 2.57129 16.0686 3.15415 16.5714 4.07986Z" fill="#3B82F6"/>
<path d="M17.2342 23.1543C16.7542 24.48 15.4857 25.4285 14 25.4285C13.0971 25.4285 12.2057 25.0628 11.5771 24.4114C11.2114 24.0685 10.9371 23.6114 10.7771 23.1428C10.9257 23.1657 11.0742 23.1771 11.2342 23.2C11.4971 23.2342 11.7714 23.2685 12.0457 23.2914C12.6971 23.3485 13.36 23.3828 14.0228 23.3828C14.6742 23.3828 15.3257 23.3485 15.9657 23.2914C16.2057 23.2685 16.4457 23.2571 16.6742 23.2228C16.8571 23.2 17.04 23.1771 17.2342 23.1543Z" fill="#3B82F6"/>
</svg>
